<svg version="1.2" xmlns="http://www.w3.org/2000/svg" viewBox="0 0 100 100" width="100" height="100"><style>.a{fill:#fff}</style><path fill-rule="evenodd" class="a" d="m43.3 33v6h-1.6v-6zm-5.3 6.8l-1.3 0.8-3.2-5.1 1.4-0.8zm13.7-4.1l-1.8 3.2q0.3 0 0.7 0c5.8 0 10.5 3.9 12 9.2 0.7-0.2 1.5-0.3 2.3-0.3 5.5 0 10.1 4.5 10.1 10.1 0 5.6-4.6 10.1-10.1 10.1h-33.5c-1.6 0-3.1-0.2-4.4-1.1-1.2-0.8-2-2.3-2-4 0-1.8 0.7-3.4 1.9-4.6l-0.2-0.3 5.1-3.1 0.3 0.5q0.4-1.1 1.2-2.1-0.5-1.3-0.5-2.8c0-5.3 4.4-9.7 9.7-9.7q0.7 0 1.3 0.1c1.2-0.8 2.6-1.4 4.1-1.7l2.4-4.3zm-23.7 4.9c0 0 5.2 2.9 5.2 2.9l-0.7 1.4-5.2-2.9zm12.5 10.8q0-0.2 0 0.3l0.1 1.3h-1.4q-0.4-0.1-0.3-0.1c-2.7 0-4.8 2.1-4.9 4.8q0 0 0 0.2v1.6l-1.5-0.4q-0.6-0.2-1.2-0.2c-2.2 0-4 1.8-4 4 0 1.1 0.4 1.6 1 2.1 0.7 0.4 1.8 0.7 3 0.7h33.5c4.3 0 7.8-3.5 7.8-7.8 0-4.3-3.5-7.7-7.8-7.7-0.9 0-1.8 0.2-2.7 0.5l-1.4 0.5-0.2-1.4c-0.8-4.8-4.9-8.5-9.9-8.5-5.6 0-10.1 4.5-10.1 10.1zm-15.6-2.1h6v1.6h-6z"/></svg>